HIERARCHY
ROOT Hips
{
  OFFSET 267.745 86.9975 -272.335
  CHANNELS 6 Xposition Yposition Zposition Zrotation Xrotation Yrotation
  JOINT LeftUpLeg
  {
    OFFSET 8.64259 1.95398 -2.38835
    CHANNELS 3 Zrotation Xrotation Yrotation
    JOINT LeftLeg
    {
      OFFSET 43.7702 0 0
      CHANNELS 3 Zrotation Xrotation Yrotation
      JOINT LeftFoot
      {
        OFFSET 40.6238 0 0
        CHANNELS 3 Zrotation Xrotation Yrotation
        JOINT LeftToeBase
        {
          OFFSET 12.7242 0 0
          CHANNELS 3 Zrotation Xrotation Yrotation
          End Site
          {
            OFFSET 0 0 0
          }
        }
      }
    }
  }
  JOINT RightUpLeg
  {
    OFFSET -8.2249 1.95398 -2.59336
    CHANNELS 3 Zrotation Xrotation Yrotation
    JOINT RightLeg
    {
      OFFSET 43.5653 0 0
      CHANNELS 3 Zrotation Xrotation Yrotation
      JOINT RightFoot
      {
        OFFSET 40.6238 0 0
        CHANNELS 3 Zrotation Xrotation Yrotation
        JOINT RightToeBase
        {
          OFFSET 12.7242 0 0
          CHANNELS 3 Zrotation Xrotation Yrotation
          End Site
          {
            OFFSET 0 0 0
          }
        }
      }
    }
  }
  JOINT Spine
  {
    OFFSET 0.165834 0.87714 6.61349
    CHANNELS 3 Zrotation Xrotation Yrotation
    JOINT Spine1
    {
      OFFSET 7.38963 1.71661e-005 0
      CHANNELS 3 Zrotation Xrotation Yrotation
      JOINT Spine2
      {
        OFFSET 11.9445 1.14441e-005 0
        CHANNELS 3 Zrotation Xrotation Yrotation
        JOINT Spine3
        {
          OFFSET 14.7254 4.19617e-005 0
          CHANNELS 3 Zrotation Xrotation Yrotation
          JOINT Spine4
          {
            OFFSET 10.9679 0 0
            CHANNELS 3 Zrotation Xrotation Yrotation
            JOINT RightShoulder
            {
              OFFSET 2.46616 -1.6653 3.69651
              CHANNELS 3 Zrotation Xrotation Yrotation
              JOINT RightArm
              {
                OFFSET 13.0012 0 0
                CHANNELS 3 Zrotation Xrotation Yrotation
                JOINT RightForeArm
                {
                  OFFSET 28.7848 1.52588e-005 0
                  CHANNELS 3 Zrotation Xrotation Yrotation
                  JOINT RightHand
                  {
                    OFFSET 26.5688 1.52588e-005 0
                    CHANNELS 3 Zrotation Xrotation Yrotation
                    End Site
                    {
                      OFFSET 0 0 0
                    }
                  }
                }
              }
            }
            JOINT LeftShoulder
            {
              OFFSET 2.38034 -1.29275 -3.7523
              CHANNELS 3 Zrotation Xrotation Yrotation
              JOINT LeftArm
              {
                OFFSET 16.3182 6.10352e-005 0
                CHANNELS 3 Zrotation Xrotation Yrotation
                JOINT LeftForeArm
                {
                  OFFSET 27.0901 0 0
                  CHANNELS 3 Zrotation Xrotation Yrotation
                  JOINT LeftHand
                  {
                    OFFSET 24.5451 1.52588e-005 0
                    CHANNELS 3 Zrotation Xrotation Yrotation
                    End Site
                    {
                      OFFSET 0 0 0
                    }
                  }
                }
              }
            }
            JOINT Neck
            {
              OFFSET 5.0226 -0.0266342 0
              CHANNELS 3 Zrotation Xrotation Yrotation
              JOINT Head
              {
                OFFSET 6.69364 2.86102e-005 0
                CHANNELS 3 Zrotation Xrotation Yrotation
                End Site
                {
                  OFFSET 0 0 0
                }
              }
            }
          }
        }
      }
    }
  }
}
MOTION
Frames:	15
Frame Time:	0.0416667
289.696 62.437 287.42 97.8582 -52.2753 99.2741 -157.969 11.0873 105.263 -92.3043 2.04338 -1.10915 133.9 27.913 -13.3903 60.4113 0.929531 27.5491 -160.721 -55.458 102.293 -1.68424 -62.1637 0.249062 1.8833 -2.40964 69.544 115.874 29.7455 66.9073 0.828285 14.681 -90.2355 -2.4879 1.56999 -0.326943 -14.1579 1.55396 -0.396393 -36.7006 1.59636 0.157833 -16.688 1.59636 0.157811 102.381 7.85514 -80.8394 96.2149 -10.1321 -14.6138 -17.6463 10.0645 -123.107 3.16588 4.34532 93.1545 -80.7066 -1.01858 86.6254 78.0357 16.2578 -74.2055 -137.811 -10.5753 -106.08 39.7095 -29.6363 -73.2542 161.621 -16.6103 10.4532 -120.152 -17.4328 -4.46995 
289.907 62.138 287.625 97.6781 -52.337 99.1859 -157.934 10.9792 105.273 -92.6542 1.28193 -0.849573 133.851 26.9525 -14.1717 61.8853 1.21006 28.0068 -160.523 -55.5543 102.464 -1.66783 -62.559 0.252365 2.01834 -2.07445 69.3064 115.826 29.9649 67.1952 0.841683 14.67 -90.2349 -2.46586 1.59241 -0.325424 -14.1359 1.57653 -0.395302 -36.6789 1.61665 0.168065 -16.6662 1.61665 0.168066 102.406 7.75846 -80.7085 96.2599 -10.4826 -14.2021 -17.7208 10.3794 -123.554 3.30433 4.50347 93.1337 -80.7122 -1.01365 86.6041 78.6523 16.7758 -74.0537 -137.705 -10.1392 -106.18 39.8133 -28.7488 -71.4096 161.59 -16.1285 10.4271 -120.039 -17.4206 -4.52869 
290.51 61.3021 288.193 97.1641 -52.5031 98.9321 -157.86 10.6921 105.36 -93.6063 -0.440651 -0.214455 133.405 24.4323 -16.0873 66.0365 1.95282 28.7533 -159.972 -55.8225 102.94 -1.62253 -63.6843 0.262338 2.40481 -1.12909 68.6317 115.702 30.529 67.9382 0.872733 14.6381 -90.2321 -2.40203 1.6547 -0.316369 -14.072 1.63919 -0.388906 -36.6156 1.67327 0.195701 -16.6029 1.67327 0.195705 102.478 7.48041 -80.3458 96.4039 -11.483 -13.023 -17.9472 11.2922 -124.787 3.68469 4.93504 93.0483 -80.7295 -1.00249 86.5404 80.1458 18.1693 -73.6536 -137.283 -9.1033 -106.431 39.8951 -26.1385 -66.1785 161.487 -14.7609 10.3578 -119.704 -17.3991 -4.69051 
291.456 60.0257 289.039 96.352 -52.7407 98.5212 -157.798 10.3028 105.611 -94.9933 -1.80756 0.522998 131.864 21.31 -18.0561 72.5477 2.86727 28.5409 -159.151 -56.2292 103.644 -1.56606 -65.4663 0.271491 3.01976 0.332773 67.5652 115.552 31.2559 68.8915 0.918959 14.5863 -90.2282 -2.29856 1.74798 -0.303844 -13.9684 1.73292 -0.380506 -36.5129 1.75845 0.235711 -16.5003 1.75847 0.235714 102.588 7.04075 -79.802 96.6831 -13.0656 -11.1494 -18.3516 12.7801 -126.622 4.24169 5.5574 92.8494 -80.7596 -0.99229 86.432 81.8946 20.1714 -73.0805 -136.532 -7.87455 -106.788 39.2589 -21.9973 -58.3424 161.297 -12.6404 10.2586 -119.141 -17.4091 -4.92262 
292.688 58.3963 290.083 95.2733 -53.015 97.9565 -157.769 9.88492 106.028 -96.6289 -1.2018 1.12562 128.539 19.1275 -18.4642 81.1481 3.50296 26.6728 -158.131 -56.7556 104.515 -1.4888 -67.8533 0.278545 3.84447 2.21391 66.1478 115.445 31.9822 69.8156 0.975876 14.5154 -90.2242 -2.15707 1.86261 -0.290593 -13.8267 1.84802 -0.372334 -36.3725 1.86381 0.282826 -16.3598 1.86379 0.282817 102.731 6.46075 -79.1275 97.1627 -15.1661 -8.6383 -18.9817 14.8459 -128.862 4.90372 6.27733 92.4843 -80.8042 -0.992029 86.2761 83.4308 22.5631 -72.3883 -135.713 -6.69877 -107.256 37.1915 -16.9452 -49.1551 160.997 -9.91377 10.1421 -118.342 -17.5037 -5.18261 
294.121 56.4872 291.246 93.9583 -53.2918 97.2421 -157.764 9.45196 106.53 -98.2768 2.6148 1.4503 123.12 19.3369 -15.6736 91.2059 3.61576 23.8182 -156.973 -57.3629 105.513 -1.40106 -70.8007 0.295302 4.87085 4.40219 64.4054 115.45 32.6026 70.5386 1.03896 14.4265 -90.2209 -1.97949 1.98933 -0.279285 -13.649 1.97513 -0.366604 -36.1962 1.98127 0.331754 -16.1835 1.98127 0.331742 102.902 5.76216 -78.3677 97.9325 -17.7072 -5.53454 -19.8894 17.5002 -131.314 5.60293 7.00382 91.9074 -80.8642 -1.01167 86.0717 84.5175 25.1956 -71.6179 -134.961 -5.72373 -107.804 33.7429 -11.9868 -39.845 160.572 -6.73464 10.0276 -117.307 -17.7311 -5.42625 
295.644 54.3778 292.44 92.4409 -53.5381 96.3892 -157.795 8.93249 107.055 -99.6324 10.0437 1.46422 115.495 22.1814 -8.71802 101.633 3.57643 21.519 -155.716 -58.0231 106.629 -1.27112 -74.2878 0.32375 6.0812 6.77905 62.4018 115.612 33.0607 70.96 1.10403 14.3211 -90.2196 -1.76884 2.11944 -0.272948 -13.4381 2.10537 -0.366006 -35.9869 2.10345 0.376948 -15.9743 2.10344 0.376941 103.095 4.9691 -77.562 99.0953 -20.5835 -1.87787 -21.1244 20.7403 -133.781 6.27922 7.65534 91.0839 -80.9403 -1.06241 85.8217 85.0631 27.9577 -70.8057 -134.128 -5.0898 -108.356 29.6395 -7.94773 -31.3123 160.007 -3.26323 9.93573 -116.05 -18.1242 -5.6129 
297.148 52.1889 293.565 90.7634 -53.722 95.421 -157.905 8.22158 107.627 -100.456 22.0585 1.27208 104.904 26.6005 3.55061 111.254 3.84662 20.4107 -154.434 -58.6555 107.812 -1.11066 -78.308 0.389884 7.46769 9.20514 60.2014 115.939 33.3321 71.0454 1.1673 14.2015 -90.2217 -1.52969 2.24481 -0.275328 -13.1988 2.23053 -0.373915 -35.7492 2.22373 0.412414 -15.7365 2.22373 0.412404 103.305 4.10914 -76.7426 100.747 -23.6534 2.28665 -22.7301 24.5291 -136.063 6.88291 8.16801 89.9878 -81.0317 -1.1567 85.5333 85.0394 30.7472 -69.9877 -133.027 -4.924 -108.858 25.6038 -5.04425 -24.0615 159.293 0.338741 9.88645 -114.603 -18.6917 -5.71078 
298.572 50.081 294.558 88.9771 -53.8149 94.3762 -158.084 7.31489 108.255 -100.582 34.9066 1.02732 93.1353 29.0612 16.9176 119.385 4.02839 19.5795 -153.207 -59.1912 109.002 -0.841391 -82.852 0.571566 9.0051 11.5584 57.9049 116.402 33.4185 70.8205 1.22566 14.0709 -90.2295 -1.26832 2.35851 -0.290863 -12.9372 2.34341 -0.394447 -35.4892 2.33682 0.431821 -15.4766 2.33683 0.431814 103.526 3.21038 -75.9347 102.95 -26.7445 6.89912 -24.7376 28.7804 -137.965 7.37926 8.50207 88.6004 -81.1364 -1.30776 85.2188 84.426 33.4564 -69.1973 -131.614 -5.33636 -109.302 22.0182 -3.08631 -18.1681 158.429 3.92405 9.89607 -113.006 -19.4153 -5.70239 
299.906 48.191 295.424 87.142 -53.7927 93.3074 -158.271 6.32465 108.876 -100.038 45.975 0.813813 82.89 28.8238 27.6643 125.948 3.4441 18.1797 -152.081 -59.5771 110.176 0.360303 -87.8213 1.70222 10.635 13.7244 55.593 116.941 33.3434 70.3595 1.27676 13.933 -90.2454 -0.992267 2.45487 -0.32447 -12.661 2.43822 -0.432267 -35.2144 2.43882 0.428778 -15.2018 2.43883 0.428777 103.753 2.2995 -75.1572 105.706 -29.6685 11.8718 -27.1711 33.3559 -139.31 7.74688 8.63633 86.9091 -81.2517 -1.52943 84.8942 83.1746 35.9671 -68.4595 -129.949 -6.45053 -109.69 18.9983 -1.80776 -13.4647 157.42 7.37026 9.97417 -111.3 -20.2578 -5.58296 
301.15 46.5977 296.199 85.3265 -53.6359 92.2819 -158.451 5.36869 109.44 -98.923 54.264 0.628897 75.4718 27.0323 34.5214 131.066 1.9615 16.2046 -150.889 -59.9993 111.51 178.329 -86.984 179.139 12.2125 15.7067 53.5806 117.469 33.1561 69.7837 1.31892 13.7922 -90.2722 -0.710128 2.52927 -0.381614 -12.3787 2.51004 -0.492643 -34.9334 2.52696 0.396675 -14.9208 2.52696 0.396674 103.979 1.40127 -74.4254 108.922 -32.2374 17.0612 -30.0507 38.0643 -139.942 7.97277 8.56499 84.9076 -81.3738 -1.83591 84.5793 81.1826 38.1446 -67.7902 -128.126 -8.43726 -109.995 16.5162 -0.979528 -9.71486 156.276 10.5758 10.1223 -109.52 -21.1734 -5.35426 
302.292 45.3381 296.905 83.607 -53.328 91.3795 -158.666 4.5225 109.949 -97.3609 60.0901 0.442593 70.4927 24.7782 38.2984 134.898 -0.102818 14.0151 -151.983 -57.3034 110.936 171.353 -83.1332 178.125 13.9678 15.6126 48.6799 117.866 32.9362 69.2647 1.35077 13.6533 -90.3134 -0.431367 2.57775 -0.468443 -12.0999 2.55463 -0.581533 -34.6555 2.59928 0.328462 -14.6428 2.59927 0.328449 104.199 0.536885 -73.7559 112.374 -34.2814 22.2383 -33.3721 42.6644 -139.75 8.04821 8.29902 82.6023 -81.4984 -2.24156 84.296 78.2542 39.8319 -67.1927 -126.218 -11.548 -110.143 14.4834 -0.434164 -6.68723 155.016 13.454 10.3328 -107.689 -22.1178 -5.01724 
303.314 44.4302 297.545 82.0619 -52.8546 90.6879 -158.979 3.8351 110.434 -95.508 64.0984 0.244732 67.1868 22.5514 40.1317 137.635 -2.34052 11.9226 -154.179 -52.448 109.628 159.56 -81.0138 176.554 15.0873 13.7303 42.325 117.991 32.7836 69.008 1.37127 13.521 -90.3725 -0.165278 2.59679 -0.591626 -11.8338 2.56825 -0.705411 -34.3898 2.65446 0.216738 -14.3772 2.65449 0.216732 104.404 -0.278338 -73.1681 115.705 -35.675 27.0871 -37.0736 46.8881 -138.697 7.96494 7.85631 80.0199 -81.6202 -2.76078 84.0663 74.0457 40.8528 -66.6442 -124.201 -16.1512 -109.969 12.8021 -0.066633 -4.19051 153.658 15.9314 10.5888 -105.813 -23.0578 -4.56456 
304.189 43.8914 298.105 80.7651 -52.1995 90.2931 -159.456 3.3506 110.94 -93.5449 66.7882 0.0562933 64.9878 20.502 40.807 139.48 -4.43208 10.1078 -154.79 -49.6303 109.936 153.38 -80.1092 175.533 15.4074 12.6647 39.0738 117.7 32.7923 69.2138 1.37944 13.3991 -90.4534 0.0800184 2.58309 -0.758212 -11.5886 2.54721 -0.871229 -34.1444 2.69146 0.0537349 -14.1318 2.69145 0.0537095 104.585 -1.03509 -72.6872 118.462 -36.3546 31.2366 -41.0004 50.4731 -136.862 7.71136 7.25704 77.2196 -81.7345 -3.40805 83.9111 68.0003 41.0182 -66.0743 -121.819 -22.7704 -109.082 11.3778 0.185982 -2.07882 152.219 17.9428 10.866 -103.882 -23.9758 -3.9766 
304.884 43.7505 298.56 79.7836 -51.3381 90.2776 -160.17 3.11705 111.509 -91.6665 68.4846 -0.0761439 63.5364 18.6584 40.8017 140.617 -6.15526 8.67304 -154.75 -47.5636 111.021 147.913 -81.481 172.884 15.4184 11.6087 37.7018 116.868 33.0264 70.0474 1.37411 13.2911 -90.5603 0.298187 2.53242 -0.97616 -11.3708 2.487 -1.08674 -33.9255 2.70863 -0.169414 -13.9128 2.70863 -0.169434 104.728 -1.73095 -72.3482 120.168 -36.3043 34.3107 -44.8688 53.1874 -134.455 7.27124 6.52861 74.3181 -81.8365 -4.19881 83.8484 59.2017 40.123 -65.3133 -118.168 -32.0985 -106.498 10.1069 0.361374 -0.23955 150.707 19.4225 11.1354 -101.866 -24.8685 -3.21846 
